<svg xmlns="http://www.w3.org/2000/svg" width="16" height="16" x="0" y="0" enable-background="new 0 0 16 16" viewBox="0 0 16 16"><title>person heart</title><g fill="#111" class="nc-icon-wrapper"><circle cx="8" cy="4" r="4" fill="#111" class="st0"/><path fill="#111" d="M7.2 14.1c-.8-.8-1.2-1.8-1.2-2.9 0-.4.1-.7.2-1.1-2.3.2-4 .8-5 1.3-.7.3-1.2 1-1.2 1.8V16h9.2l-2-1.9z" class="st0"/><path fill="#111" d="M15.4 9.6c-1-1-2.6-.8-3.4.3-.8-1.1-2.4-1.3-3.4-.3-.9.8-.9 2.2 0 3L12 16l3.4-3.3c.8-.9.8-2.2 0-3.1z" class="st0"/></g></svg>