<svg xmlns="http://www.w3.org/2000/svg" xmlns:svg="http://www.w3.org/2000/svg" id="svg249" width="26" height="16" version="1.1" viewBox="517 419 26 16" style="isolation:isolate"><metadata id="metadata255"/><path style="fill:#065a8a;fill-opacity:1" id="path165" fill="#065A8A" d="M 523 434 C 523 434.6 523.4 435 524 435 L 536 435 C 536.6 435 537 434.6 537 434 L 537 425 C 537 424.4 536.6 424 536 424 L 528 424 L 528 423 C 528 421.9 528.9 421 530 421 C 530.6 421 531.1 421.2 531.5 421.7 L 532.2 422.4 L 533.7 421.1 L 533 420.3 C 532.2 419.5 531.1 419 530 419 C 527.8 419 526 420.8 526 423 L 526 424 L 524 424 C 523.4 424 523 424.4 523 425 L 523 434 Z M 530 427 C 531.1 427 532 427.9 532 429 C 532 429.7 531.6 430.4 531 430.7 L 531 432 L 529 432 L 529 430.7 C 528.4 430.4 528 429.7 528 429 C 528 427.9 528.9 427 530 427 Z"/></svg>