<svg xmlns="http://www.w3.org/2000/svg" xmlns:svg="http://www.w3.org/2000/svg" style="isolation:isolate" id="svg249" width="26" height="16" version="1.1" viewBox="547 419 26 16"><metadata id="metadata255"/><path id="path167" fill="#065A8A" d="M 560 419 C 557.8 419 556 420.8 556 423 L 556 424 L 554 424 C 553.4 424 553 424.4 553 425 L 553 434 C 553 434.6 553.4 435 554 435 L 566 435 C 566.6 435 567 434.6 567 434 L 567 425 C 567 424.4 566.6 424 566 424 L 564 424 L 564 423 C 564 420.8 562.2 419 560 419 Z M 561 430.7 L 561 432 L 559 432 L 559 430.7 C 558.4 430.4 558 429.7 558 429 C 558 427.9 558.9 427 560 427 C 561.1 427 562 427.9 562 429 C 562 429.7 561.6 430.4 561 430.7 Z M 562 424 L 558 424 L 558 423 C 558 421.9 558.9 421 560 421 C 561.1 421 562 421.9 562 423 L 562 424 Z"/></svg>