<svg xmlns="http://www.w3.org/2000/svg" xmlns:xlink="http://www.w3.org/1999/xlink" style="isolation:isolate" width="73.59" height="80.077" viewBox="-129.5 209.5 73.59 80.077"><g id="place"><path fill="none" stroke="#DCDCDC" stroke-linecap="square" stroke-linejoin="miter" stroke-miterlimit="3" stroke-width="3" d="M -71 258.182 L -71 214 L -125 214 L -125 274.873 L -87.691 274.873" vector-effect="non-scaling-stroke"/><g id="list"><line x1="-102.375" x2="-88.5" y1="251.273" y2="251.273" stroke="#C3C3C3" stroke-linecap="square" stroke-linejoin="miter" stroke-miterlimit="3" stroke-width="2" vector-effect="non-scaling-stroke"/><path fill="none" stroke="#C3C3C3" stroke-linecap="square" stroke-linejoin="miter" stroke-miterlimit="3" stroke-width="2" d="M -114 251.273 C -114 249.617 -112.656 248.273 -111 248.273 C -109.344 248.273 -108 249.617 -108 251.273 C -108 252.928 -109.344 254.273 -111 254.273 C -112.656 254.273 -114 252.928 -114 251.273 Z" vector-effect="non-scaling-stroke"/><line x1="-102.375" x2="-92.625" y1="240" y2="240" stroke="#C3C3C3" stroke-linecap="square" stroke-linejoin="miter" stroke-miterlimit="3" stroke-width="2" vector-effect="non-scaling-stroke"/><path fill="none" stroke="#C3C3C3" stroke-linecap="square" stroke-linejoin="miter" stroke-miterlimit="3" stroke-width="2" d="M -114 240 C -114 238.344 -112.656 237 -111 237 C -109.344 237 -108 238.344 -108 240 C -108 241.656 -109.344 243 -111 243 C -112.656 243 -114 241.656 -114 240 Z" vector-effect="non-scaling-stroke"/><line x1="-102.375" x2="-83.625" y1="228.727" y2="228.727" stroke="#C3C3C3" stroke-linecap="square" stroke-linejoin="miter" stroke-miterlimit="3" stroke-width="2" vector-effect="non-scaling-stroke"/><path fill="none" stroke="#C3C3C3" stroke-linecap="square" stroke-linejoin="miter" stroke-miterlimit="3" stroke-width="2" d="M -114 228.727 C -114 227.072 -112.656 225.727 -111 225.727 C -109.344 225.727 -108 227.072 -108 228.727 C -108 230.383 -109.344 231.727 -111 231.727 C -112.656 231.727 -114 230.383 -114 228.727 Z" vector-effect="non-scaling-stroke"/></g><g id="arrow"><path fill="#FFF" d="M -65.487 255.775 C -67.221 255.27 -69.053 255 -70.949 255 C -81.732 255 -90.487 263.755 -90.487 274.538 C -90.487 276.532 -90.188 278.457 -89.632 280.269 L -65.487 280.269 L -65.487 255.775 Z"/><path fill="#FFF" stroke="#02E8B0" stroke-linecap="butt" stroke-linejoin="miter" stroke-miterlimit="3" stroke-width="3" d="M -84.487 274.538 C -84.487 267.066 -78.421 261 -70.949 261 C -63.477 261 -57.41 267.066 -57.41 274.538 C -57.41 282.011 -63.477 288.077 -70.949 288.077 C -78.421 288.077 -84.487 282.011 -84.487 274.538 Z" vector-effect="non-scaling-stroke"/><line x1="-75.66" x2="-67.364" y1="274.536" y2="274.536" stroke="#02E8B0" stroke-linecap="square" stroke-linejoin="miter" stroke-miterlimit="3" stroke-width="3" vector-effect="non-scaling-stroke"/><path fill="none" stroke="#02E8B0" stroke-linecap="square" stroke-linejoin="miter" stroke-miterlimit="3" stroke-width="3" d="M -70.34 279.071 L -65.805 274.536 L -70.34 270" vector-effect="non-scaling-stroke"/></g></g></svg>