<svg xmlns="http://www.w3.org/2000/svg" xmlns:xlink="http://www.w3.org/1999/xlink" style="isolation:isolate" width="73.59" height="80.077" viewBox="108.244 209.5 73.59 80.077"><g id="reject-bid"><path fill="none" stroke="#DCDCDC" stroke-linecap="square" stroke-linejoin="miter" stroke-miterlimit="3" stroke-width="3" d="M 166.744 258.182 L 166.744 214 L 112.744 214 L 112.744 274.873 L 150.053 274.873" vector-effect="non-scaling-stroke"/><g id="list"><line x1="135.369" x2="149.244" y1="251.273" y2="251.273" stroke="#C3C3C3" stroke-linecap="square" stroke-linejoin="miter" stroke-miterlimit="3" stroke-width="2" vector-effect="non-scaling-stroke"/><path fill="none" stroke="#C3C3C3" stroke-linecap="square" stroke-linejoin="miter" stroke-miterlimit="3" stroke-width="2" d="M 123.744 251.273 C 123.744 249.617 125.088 248.273 126.744 248.273 C 128.399 248.273 129.744 249.617 129.744 251.273 C 129.744 252.928 128.399 254.273 126.744 254.273 C 125.088 254.273 123.744 252.928 123.744 251.273 Z" vector-effect="non-scaling-stroke"/><line x1="135.369" x2="145.119" y1="240" y2="240" stroke="#C3C3C3" stroke-linecap="square" stroke-linejoin="miter" stroke-miterlimit="3" stroke-width="2" vector-effect="non-scaling-stroke"/><path fill="none" stroke="#C3C3C3" stroke-linecap="square" stroke-linejoin="miter" stroke-miterlimit="3" stroke-width="2" d="M 123.744 240 C 123.744 238.344 125.088 237 126.744 237 C 128.399 237 129.744 238.344 129.744 240 C 129.744 241.656 128.399 243 126.744 243 C 125.088 243 123.744 241.656 123.744 240 Z" vector-effect="non-scaling-stroke"/><line x1="135.369" x2="154.119" y1="228.727" y2="228.727" stroke="#C3C3C3" stroke-linecap="square" stroke-linejoin="miter" stroke-miterlimit="3" stroke-width="2" vector-effect="non-scaling-stroke"/><path fill="none" stroke="#C3C3C3" stroke-linecap="square" stroke-linejoin="miter" stroke-miterlimit="3" stroke-width="2" d="M 123.744 228.727 C 123.744 227.072 125.088 225.727 126.744 225.727 C 128.399 225.727 129.744 227.072 129.744 228.727 C 129.744 230.383 128.399 231.727 126.744 231.727 C 125.088 231.727 123.744 230.383 123.744 228.727 Z" vector-effect="non-scaling-stroke"/></g><g id="arrow"><path fill="#FFF" d="M 172.256 255.775 C 170.523 255.27 168.69 255 166.795 255 C 156.011 255 147.256 263.755 147.256 274.538 C 147.256 276.532 147.556 278.457 148.112 280.269 L 172.256 280.269 L 172.256 255.775 Z"/><path fill="#FFF" stroke="#EC4B50" stroke-linecap="butt" stroke-linejoin="miter" stroke-miterlimit="3" stroke-width="3" d="M 153.256 274.538 C 153.256 267.066 159.323 261 166.795 261 C 174.267 261 180.333 267.066 180.333 274.538 C 180.333 282.011 174.267 288.077 166.795 288.077 C 159.323 288.077 153.256 282.011 153.256 274.538 Z" vector-effect="non-scaling-stroke"/><g id="×"><line x1="170.897" x2="162.692" y1="270.897" y2="279.103" stroke="#EC4B50" stroke-linecap="square" stroke-linejoin="miter" stroke-miterlimit="3" stroke-width="3" vector-effect="non-scaling-stroke"/><line x1="162.692" x2="170.897" y1="270.897" y2="279.103" stroke="#EC4B50" stroke-linecap="square" stroke-linejoin="miter" stroke-miterlimit="3" stroke-width="3" vector-effect="non-scaling-stroke"/></g></g></g></svg>