<svg xmlns="http://www.w3.org/2000/svg" xmlns:xlink="http://www.w3.org/1999/xlink" style="isolation:isolate" width="78.59" height="79.615" viewBox="225.987 209.962 78.59 79.615"><g id="shipped"><path fill="none" stroke="#DCDCDC" stroke-linecap="square" stroke-linejoin="miter" stroke-miterlimit="3" stroke-width="3" d="M 289.564 275.232 L 289.564 230.872 L 280.538 214.462 L 239.513 214.462 L 230.487 230.872 L 230.487 275.179 L 289.564 275.232 Z" vector-effect="non-scaling-stroke"/><line x1="231.526" x2="288.675" y1="230.872" y2="230.872" stroke="#DCDCDC" stroke-linecap="square" stroke-linejoin="miter" stroke-miterlimit="3" stroke-width="3" vector-effect="non-scaling-stroke"/><line x1="260.026" x2="260.026" y1="215.433" y2="230.382" stroke="#DCDCDC" stroke-linecap="square" stroke-linejoin="miter" stroke-miterlimit="3" stroke-width="3" vector-effect="non-scaling-stroke"/><g id="stamp"><path d="M 241.805 246.221 L 265.189 242.035 C 266.379 241.822 267.518 242.615 267.731 243.805 L 268.889 250.274 C 269.103 251.464 268.309 252.604 267.119 252.817 L 243.735 257.004 C 242.545 257.217 241.406 256.423 241.193 255.233 L 240.035 248.764 C 239.822 247.574 240.615 246.435 241.805 246.221 Z" style="fill:none;stroke:#c3c3c3;stroke-width:2;stroke-linecap:square;stroke-miterlimit:3"/><line x1="245.668" x2="258.606" y1="251.094" y2="248.777" stroke="#C3C3C3" stroke-linecap="square" stroke-linejoin="miter" stroke-miterlimit="3" stroke-width="2" vector-effect="non-scaling-stroke"/></g><g id="check"><path fill="#FFF" d="M 295 255.775 C 293.267 255.27 291.434 255 289.538 255 C 278.755 255 270 263.755 270 274.538 C 270 276.532 270.299 278.457 270.855 280.269 L 295 280.269 L 295 255.775 Z"/><path fill="#FFF" stroke="#02E8B0" stroke-linecap="butt" stroke-linejoin="miter" stroke-miterlimit="3" stroke-width="3" d="M 276 274.538 C 276 267.066 282.066 261 289.538 261 C 297.011 261 303.077 267.066 303.077 274.538 C 303.077 282.011 297.011 288.077 289.538 288.077 C 282.066 288.077 276 282.011 276 274.538 Z" vector-effect="non-scaling-stroke"/><path fill="none" stroke="#02E8B0" stroke-linecap="square" stroke-linejoin="miter" stroke-miterlimit="3" stroke-width="3" d="M 284.037 275.052 L 287.846 278.861 L 295.04 271.667" vector-effect="non-scaling-stroke"/></g></g></svg>