<svg xmlns="http://www.w3.org/2000/svg" xmlns:svg="http://www.w3.org/2000/svg" style="isolation:isolate" id="svg759" width="26" height="16" version="1.1" viewBox="686 419 26 16"><metadata id="metadata765"/><g id="peers_2"><rect id="rect694" width="2" height="3" x="688" y="432" fill="#065A8A" transform="matrix(1,0,0,1,0,0)"/><rect id="rect696" width="2" height="5" x="692" y="430" fill="#065A8A" transform="matrix(1,0,0,1,0,0)"/><rect id="rect698" width="2" height="7" x="696" y="428" fill="#16151B" transform="matrix(1,0,0,1,0,0)"/><rect id="rect700" width="2" height="9" x="700" y="426" fill="#16151B" transform="matrix(1,0,0,1,0,0)"/><rect id="rect702" width="2" height="11" x="704" y="424" fill="#16151B" transform="matrix(1,0,0,1,0,0)"/><rect id="rect704" width="2" height="13" x="708" y="422" fill="#16151B" transform="matrix(1,0,0,1,0,0)"/></g></svg>