<svg xmlns="http://www.w3.org/2000/svg" xmlns:svg="http://www.w3.org/2000/svg" style="isolation:isolate" id="svg1014" width="26" height="16" version="1.1" viewBox="726 419 26 16"><metadata id="metadata1020"/><g id="peers_3"><rect id="rect962" width="2" height="3" x="728" y="432" fill="#065A8A" transform="matrix(1,0,0,1,0,0)"/><rect id="rect964" width="2" height="5" x="732" y="430" fill="#065A8A" transform="matrix(1,0,0,1,0,0)"/><rect id="rect966" width="2" height="7" x="736" y="428" fill="#065A8A" transform="matrix(1,0,0,1,0,0)"/><rect id="rect968" width="2" height="9" x="740" y="426" fill="#16151B" transform="matrix(1,0,0,1,0,0)"/><rect id="rect970" width="2" height="11" x="744" y="424" fill="#16151B" transform="matrix(1,0,0,1,0,0)"/><rect id="rect972" width="2" height="13" x="748" y="422" fill="#16151B" transform="matrix(1,0,0,1,0,0)"/></g></svg>