<svg xmlns="http://www.w3.org/2000/svg" xmlns:svg="http://www.w3.org/2000/svg" style="isolation:isolate" id="svg504" width="26" height="16" version="1.1" viewBox="646 419 26 16"><metadata id="metadata510"/><g id="peers_1"><rect id="rect426" width="2" height="3" x="648" y="432" fill="#065A8A" transform="matrix(1,0,0,1,0,0)"/><rect id="rect428" width="2" height="5" x="652" y="430" fill="#16151B" transform="matrix(1,0,0,1,0,0)"/><rect id="rect430" width="2" height="7" x="656" y="428" fill="#16151B" transform="matrix(1,0,0,1,0,0)"/><rect id="rect432" width="2" height="9" x="660" y="426" fill="#16151B" transform="matrix(1,0,0,1,0,0)"/><rect id="rect434" width="2" height="11" x="664" y="424" fill="#16151B" transform="matrix(1,0,0,1,0,0)"/><rect id="rect436" width="2" height="13" x="668" y="422" fill="#16151B" transform="matrix(1,0,0,1,0,0)"/></g></svg>