<svg xmlns="http://www.w3.org/2000/svg" xmlns:svg="http://www.w3.org/2000/svg" style="isolation:isolate" id="svg249" width="26" height="16" version="1.1" viewBox="616 419 26 16"><metadata id="metadata255"/><path id="path169" fill="#E3223C" d="M 629 419 C 624.6 419 621 422.6 621 427 C 621 431.4 624.6 435 629 435 C 633.4 435 637 431.4 637 427 C 637 422.6 633.4 419 629 419 Z M 629 421 C 630.3 421 631.5 421.4 632.5 422.1 L 624.1 430.5 C 623.4 429.5 623 428.3 623 427 C 623 423.7 625.7 421 629 421 Z M 629 433 C 627.7 433 626.5 432.6 625.5 431.9 L 633.9 423.5 C 634.6 424.5 635 425.7 635 427 C 635 430.3 632.3 433 629 433 Z"/></svg>