<svg xmlns="http://www.w3.org/2000/svg" xmlns:svg="http://www.w3.org/2000/svg" style="isolation:isolate" id="svg1524" width="26" height="16" version="1.1" viewBox="806 419 26 16"><metadata id="metadata1530"/><g id="peers_5"><rect id="rect1498" width="2" height="3" x="808" y="432" fill="#065A8A" transform="matrix(1,0,0,1,0,0)"/><rect id="rect1500" width="2" height="5" x="812" y="430" fill="#065A8A" transform="matrix(1,0,0,1,0,0)"/><rect id="rect1502" width="2" height="7" x="816" y="428" fill="#065A8A" transform="matrix(1,0,0,1,0,0)"/><rect id="rect1504" width="2" height="9" x="820" y="426" fill="#065A8A" transform="matrix(1,0,0,1,0,0)"/><rect id="rect1506" width="2" height="11" x="824" y="424" fill="#065A8A" transform="matrix(1,0,0,1,0,0)"/><rect id="rect1508" width="2" height="13" x="828" y="422" fill="#16151B" transform="matrix(1,0,0,1,0,0)"/></g></svg>