<svg xmlns="http://www.w3.org/2000/svg" xmlns:svg="http://www.w3.org/2000/svg" style="isolation:isolate" id="svg1779" width="26" height="16" version="1.1" viewBox="846 419 26 16"><metadata id="metadata1785"/><g id="peers_6"><rect id="rect1766" width="2" height="3" x="848" y="432" fill="#065A8A" transform="matrix(1,0,0,1,0,0)"/><rect id="rect1768" width="2" height="5" x="852" y="430" fill="#065A8A" transform="matrix(1,0,0,1,0,0)"/><rect id="rect1770" width="2" height="7" x="856" y="428" fill="#065A8A" transform="matrix(1,0,0,1,0,0)"/><rect id="rect1772" width="2" height="9" x="860" y="426" fill="#065A8A" transform="matrix(1,0,0,1,0,0)"/><rect id="rect1774" width="2" height="11" x="864" y="424" fill="#065A8A" transform="matrix(1,0,0,1,0,0)"/><rect id="rect1776" width="2" height="13" x="868" y="422" fill="#065A8A" transform="matrix(1,0,0,1,0,0)"/></g></svg>