<svg xmlns="http://www.w3.org/2000/svg" xmlns:svg="http://www.w3.org/2000/svg" style="isolation:isolate" id="svg1269" width="26" height="16" version="1.1" viewBox="766 419 26 16"><metadata id="metadata1275"/><g id="peers_4"><rect id="rect1230" width="2" height="3" x="768" y="432" fill="#065A8A" transform="matrix(1,0,0,1,0,0)"/><rect id="rect1232" width="2" height="5" x="772" y="430" fill="#065A8A" transform="matrix(1,0,0,1,0,0)"/><rect id="rect1234" width="2" height="7" x="776" y="428" fill="#065A8A" transform="matrix(1,0,0,1,0,0)"/><rect id="rect1236" width="2" height="9" x="780" y="426" fill="#065A8A" transform="matrix(1,0,0,1,0,0)"/><rect id="rect1238" width="2" height="11" x="784" y="424" fill="#16151B" transform="matrix(1,0,0,1,0,0)"/><rect id="rect1240" width="2" height="13" x="788" y="422" fill="#16151B" transform="matrix(1,0,0,1,0,0)"/></g></svg>